<svg width="269" height="27" viewBox="0 0 269 27" fill="none" xmlns="http://www.w3.org/2000/svg">
<path d="M0.31104 17.374L2.22336 9.07962H5.48352C5.93664 9.07962 6.33216 9.16794 6.67008 9.34458C7.008 9.52122 7.26912 9.77082 7.45344 10.0934C7.64544 10.4159 7.74144 10.7923 7.74144 11.2223C7.74144 11.614 7.66464 11.9788 7.51104 12.3167C7.36512 12.647 7.15776 12.935 6.88896 13.1807C6.62016 13.4265 6.30144 13.6185 5.9328 13.7567C5.57184 13.8873 5.17248 13.9526 4.73472 13.9526H1.7856L1.96992 13.1231H4.7808C5.08032 13.1231 5.35296 13.0809 5.59872 12.9964C5.84448 12.9043 6.05568 12.7775 6.23232 12.6163C6.41664 12.4473 6.55488 12.2515 6.64704 12.0287C6.74688 11.806 6.7968 11.5603 6.7968 11.2915C6.7968 10.8844 6.67392 10.5542 6.42816 10.3007C6.19008 10.0396 5.7984 9.90906 5.25312 9.90906H2.97216L1.25568 17.374H0.31104ZM10.7364 17.4892C10.2449 17.4892 9.81093 17.3817 9.43461 17.1667C9.05829 16.9439 8.76261 16.6367 8.54757 16.2451C8.34021 15.8534 8.23653 15.4003 8.23653 14.8857C8.23653 14.4019 8.32101 13.9487 8.48997 13.5263C8.66661 13.1039 8.90469 12.7315 9.20421 12.4089C9.51141 12.0863 9.86469 11.8367 10.2641 11.6601C10.6634 11.4758 11.0935 11.3836 11.5543 11.3836C12.0612 11.3836 12.5028 11.4911 12.8791 11.7062C13.2554 11.9212 13.5473 12.2246 13.7546 12.6163C13.962 13.0003 14.0657 13.4495 14.0657 13.9641C14.0657 14.4479 13.9773 14.9049 13.8007 15.335C13.6241 15.7574 13.3821 16.1299 13.0749 16.4524C12.7677 16.775 12.4145 17.0284 12.0151 17.2127C11.6157 17.3971 11.1895 17.4892 10.7364 17.4892ZM10.7825 16.7059C11.0973 16.7059 11.3969 16.6367 11.681 16.4985C11.9652 16.3526 12.2148 16.1567 12.4298 15.911C12.6449 15.6575 12.8138 15.3657 12.9367 15.0355C13.0596 14.7052 13.121 14.3519 13.121 13.9756C13.121 13.4227 12.9751 12.9849 12.6833 12.6623C12.3991 12.3321 12.0074 12.167 11.5082 12.167C11.1857 12.167 10.8823 12.2361 10.5981 12.3743C10.3217 12.5126 10.0759 12.7046 9.86085 12.9503C9.65349 13.1961 9.48837 13.4841 9.36549 13.8143C9.24261 14.1369 9.18117 14.4863 9.18117 14.8627C9.18117 15.4233 9.32709 15.8726 9.61893 16.2105C9.91077 16.5407 10.2986 16.7059 10.7825 16.7059ZM16.4183 17.374L15.9805 11.4988H16.8791L17.0979 16.5331H16.8675L19.6899 11.4988H20.4387L20.9456 16.5331H20.6807L23.2151 11.4988H24.1712L21.0147 17.374H20.2659L19.7475 12.455H20.024L17.2016 17.374H16.4183ZM27.2221 17.4892C26.7229 17.4892 26.2852 17.3817 25.9088 17.1667C25.5325 16.9516 25.2407 16.6521 25.0333 16.2681C24.826 15.8764 24.7223 15.4233 24.7223 14.9087C24.7223 14.5171 24.776 14.1446 24.8836 13.7913C24.9988 13.438 25.1562 13.1155 25.3559 12.8236C25.5556 12.5318 25.7936 12.2783 26.0701 12.0633C26.3466 11.8483 26.65 11.6831 26.9802 11.5679C27.3104 11.4451 27.6599 11.3836 28.0285 11.3836C28.5047 11.3836 28.9194 11.4796 29.2727 11.6716C29.6336 11.8636 29.9101 12.1324 30.1021 12.478C30.3018 12.8236 30.4016 13.2268 30.4016 13.6876C30.4016 13.8643 30.3824 14.0409 30.344 14.2175C30.3133 14.3865 30.2596 14.5516 30.1828 14.7129H25.425L25.5978 13.9411H29.7796L29.3879 14.5631C29.457 14.279 29.4877 13.9987 29.48 13.7222C29.48 13.438 29.4263 13.1807 29.3188 12.9503C29.2189 12.7123 29.0615 12.5241 28.8464 12.3859C28.6314 12.2399 28.3434 12.167 27.9824 12.167C27.729 12.167 27.4871 12.2131 27.2567 12.3052C27.0263 12.3974 26.8151 12.5279 26.6231 12.6969C26.4311 12.8582 26.2621 13.054 26.1162 13.2844C25.9703 13.5071 25.8589 13.7567 25.7821 14.0332C25.7053 14.302 25.6669 14.5862 25.6669 14.8857C25.6669 15.454 25.8167 15.8995 26.1162 16.222C26.4157 16.5446 26.8266 16.7059 27.3488 16.7059C27.7021 16.7059 28.0093 16.6291 28.2704 16.4755C28.5316 16.3142 28.7543 16.0723 28.9386 15.7497H29.8141C29.53 16.3334 29.169 16.7711 28.7312 17.063C28.2935 17.3471 27.7904 17.4892 27.2221 17.4892ZM31.5822 17.374L32.9415 11.4988H33.8055L33.4599 12.9964H33.5175L32.5038 17.374H31.5822ZM33.2526 14.1139L33.4139 12.7084C33.6135 12.3167 33.8977 11.998 34.2663 11.7523C34.6427 11.5065 35.0574 11.3836 35.5105 11.3836C35.6411 11.3836 35.7524 11.3951 35.8446 11.4182C35.9367 11.4335 36.0097 11.4527 36.0635 11.4758L35.8561 12.3628C35.7947 12.3398 35.6987 12.3206 35.5681 12.3052C35.4452 12.2822 35.3262 12.2707 35.211 12.2707C34.7118 12.2707 34.2932 12.4281 33.9553 12.743C33.6174 13.0579 33.3831 13.5148 33.2526 14.1139ZM38.9829 17.4892C38.4837 17.4892 38.0459 17.3817 37.6696 17.1667C37.2933 16.9516 37.0014 16.6521 36.7941 16.2681C36.5867 15.8764 36.483 15.4233 36.483 14.9087C36.483 14.5171 36.5368 14.1446 36.6443 13.7913C36.7595 13.438 36.917 13.1155 37.1166 12.8236C37.3163 12.5318 37.5544 12.2783 37.8309 12.0633C38.1074 11.8483 38.4107 11.6831 38.741 11.5679C39.0712 11.4451 39.4206 11.3836 39.7893 11.3836C40.2654 11.3836 40.6802 11.4796 41.0334 11.6716C41.3944 11.8636 41.6709 12.1324 41.8629 12.478C42.0626 12.8236 42.1624 13.2268 42.1624 13.6876C42.1624 13.8643 42.1432 14.0409 42.1048 14.2175C42.0741 14.3865 42.0203 14.5516 41.9435 14.7129H37.1858L37.3586 13.9411H41.5403L41.1486 14.5631C41.2178 14.279 41.2485 13.9987 41.2408 13.7222C41.2408 13.438 41.187 13.1807 41.0795 12.9503C40.9797 12.7123 40.8222 12.5241 40.6072 12.3859C40.3922 12.2399 40.1042 12.167 39.7432 12.167C39.4898 12.167 39.2478 12.2131 39.0174 12.3052C38.787 12.3974 38.5758 12.5279 38.3838 12.6969C38.1918 12.8582 38.0229 13.054 37.877 13.2844C37.731 13.5071 37.6197 13.7567 37.5429 14.0332C37.4661 14.302 37.4277 14.5862 37.4277 14.8857C37.4277 15.454 37.5774 15.8995 37.877 16.222C38.1765 16.5446 38.5874 16.7059 39.1096 16.7059C39.4629 16.7059 39.7701 16.6291 40.0312 16.4755C40.2923 16.3142 40.515 16.0723 40.6994 15.7497H41.5749C41.2907 16.3334 40.9298 16.7711 40.492 17.063C40.0542 17.3471 39.5512 17.4892 38.9829 17.4892ZM47.6168 17.374L47.8933 16.199L47.9509 16.2451C47.7282 16.6444 47.4248 16.9516 47.0408 17.1667C46.6568 17.3817 46.2268 17.4892 45.7506 17.4892C45.0671 17.4892 44.5295 17.2703 44.1378 16.8326C43.7461 16.3948 43.5503 15.8035 43.5503 15.0585C43.5503 14.5516 43.6309 14.0793 43.7922 13.6415C43.9612 13.1961 44.1916 12.8083 44.4834 12.478C44.7829 12.1401 45.1247 11.8751 45.5087 11.6831C45.8927 11.4911 46.3036 11.3951 46.7413 11.3951C47.133 11.3951 47.4748 11.4719 47.7666 11.6255C48.0584 11.7715 48.285 11.9788 48.4463 12.2476C48.6152 12.5087 48.6997 12.8159 48.6997 13.1692L48.5154 13.1807L49.4716 9.07962H50.3932L48.4808 17.374H47.6168ZM46.004 16.6828C46.2575 16.6828 46.4994 16.6367 46.7298 16.5446C46.9679 16.4524 47.1829 16.3257 47.3749 16.1644C47.5669 15.9955 47.7359 15.7996 47.8818 15.5769C48.0277 15.3465 48.1391 15.0969 48.2159 14.8281C48.2927 14.5593 48.3311 14.279 48.3311 13.9871C48.3311 13.4342 48.189 13.0003 47.9048 12.6854C47.6284 12.3628 47.252 12.2015 46.7759 12.2015C46.3458 12.2015 45.958 12.3244 45.6124 12.5702C45.2668 12.8159 44.9941 13.1462 44.7944 13.5609C44.5948 13.9679 44.4949 14.4211 44.4949 14.9203C44.4949 15.4579 44.6293 15.8879 44.8981 16.2105C45.1669 16.5254 45.5356 16.6828 46.004 16.6828ZM56.8863 17.4777C56.4946 17.4777 56.1529 17.4047 55.861 17.2588C55.5692 17.1052 55.3426 16.894 55.1813 16.6252C55.0201 16.3564 54.9356 16.0492 54.9279 15.7036L55.0546 15.6921L54.6514 17.374H53.7874L55.6997 9.07962H56.6213L55.7919 12.6739L55.6767 12.6278C55.8994 12.2284 56.2028 11.9212 56.5868 11.7062C56.9785 11.4911 57.4085 11.3836 57.877 11.3836C58.5605 11.3836 59.0981 11.6025 59.4898 12.0403C59.8815 12.4703 60.0773 13.0617 60.0773 13.8143C60.0773 14.3212 59.9929 14.7974 59.8239 15.2428C59.6626 15.6806 59.4322 16.0684 59.1327 16.4063C58.8409 16.7366 58.5029 16.9977 58.1189 17.1897C57.7349 17.3817 57.3241 17.4777 56.8863 17.4777ZM56.8517 16.6713C57.1743 16.6713 57.4738 16.6022 57.7503 16.4639C58.0268 16.318 58.2687 16.1222 58.4761 15.8764C58.6834 15.623 58.8447 15.3311 58.9599 15.0009C59.0751 14.6707 59.1327 14.3212 59.1327 13.9526C59.1327 13.4073 58.9983 12.9772 58.7295 12.6623C58.4684 12.3475 58.0997 12.19 57.6236 12.19C57.3701 12.19 57.1244 12.2361 56.8863 12.3283C56.6559 12.4204 56.4447 12.551 56.2527 12.7199C56.0607 12.8812 55.8917 13.0771 55.7458 13.3075C55.5999 13.5302 55.4885 13.7759 55.4117 14.0447C55.3349 14.3135 55.2965 14.5939 55.2965 14.8857C55.2965 15.4387 55.4386 15.8764 55.7228 16.199C56.0069 16.5139 56.3833 16.6713 56.8517 16.6713ZM61.0657 19.7356L63.0817 16.6828L63.3582 16.3603L66.411 11.4988H67.4363L62.1256 19.7356H61.0657ZM63.0932 17.4316L61.826 11.4988H62.7707L63.8075 16.8095L63.0932 17.4316Z" fill="#EAE0CA" fill-opacity="0.8"/>
<path d="M92.8593 5.78979H89.1677V15.2384C89.1677 18.299 91.6488 20.7793 94.7087 20.7793H101.025V17.7369H92.8593V5.78979Z" fill="#EAE0CA"/>
<path d="M106.862 7.12499L101.787 20.7793H105.233L106.441 17.5578H113.645L114.853 20.7793H118.5L112.884 5.78979H108.782C107.926 5.78979 107.16 6.32213 106.862 7.12499ZM107.537 14.6045L109.405 9.56257C109.533 9.21807 109.861 8.98889 110.229 8.98889H110.445L112.548 14.6045H107.537Z" fill="#EAE0CA"/>
<path d="M131.154 15.8795H130.662L124.398 5.78979H119.521V20.4428C119.521 20.6285 119.671 20.7793 119.857 20.7793H122.899V10.6896H123.414L129.678 20.7793H134.555V6.42294C134.555 6.07337 134.271 5.78979 133.922 5.78979H131.154V15.8795Z" fill="#EAE0CA"/>
<path d="M136.323 8.83223H141.916V19.8097C141.916 20.3449 142.351 20.7793 142.886 20.7793H145.608V8.83223H149.958L151.201 5.78979H136.323V8.83223Z" fill="#EAE0CA"/>
<path d="M160.826 5.58765H160.077C154.596 5.58765 150.233 8.22757 150.233 12.9258V13.6416C150.233 18.3848 154.596 20.9797 160.077 20.9797H160.826C166.195 20.9797 170.468 18.3848 170.468 13.6416V12.9258C170.468 8.22757 166.195 5.58765 160.826 5.58765ZM166.442 13.6416C166.442 16.2148 164.182 17.6015 160.647 17.6015H160.077C156.542 17.6015 154.282 16.2141 154.282 13.6416V12.9258C154.282 10.3751 156.542 8.96588 160.077 8.96588H160.647C164.182 8.96588 166.442 10.3751 166.442 12.9258V13.6416Z" fill="#EAE0CA"/>
<path d="M183.885 6.18143V15.8795H183.393L177.128 5.78979H172.251V20.5052C172.251 20.6568 172.373 20.7793 172.525 20.7793H175.629V10.6896H176.144L182.408 20.7793H187.285V5.78979H184.277C184.06 5.78979 183.885 5.9653 183.885 6.18215L183.885 6.18143Z" fill="#EAE0CA"/>
<path d="M82.2331 5.78857H74V20.6613C74 20.7259 74.0522 20.7781 74.1168 20.7781H77.6916V15.8558H82.2331C86.238 15.8558 87.8487 14.1333 87.8487 11.2026V10.4193C87.8487 7.51105 86.238 5.78857 82.2331 5.78857ZM84.1122 11.1134C84.1122 12.3666 83.3739 12.8141 81.9198 12.8141H77.6916V8.83174H81.9198C83.3739 8.83174 84.1122 9.3017 84.1122 10.51V11.1141V11.1134Z" fill="#EAE0CA"/>
<path d="M206.414 4.79486C206.355 5.92371 205.137 6.81491 203.83 7.14168C204.84 7.97347 205.345 9.10232 205.345 10.2906C205.345 13.7068 202.166 16.1131 198.364 16.1131C197.205 16.1131 196.195 15.9348 195.363 15.5784C194.918 15.816 194.324 16.2913 194.234 16.8854C194.056 18.3411 195.868 18.6678 197.591 18.6678C199.225 18.6678 200.978 18.4896 202.018 18.4896C204.929 18.4896 206.236 19.9155 205.939 21.7573C205.553 24.6686 202.285 26.748 196.849 26.748C193.432 26.748 190.343 25.6489 190.729 23.005C190.848 22.0841 191.62 20.9255 193.076 20.3314C192.185 19.8561 191.412 19.0243 191.591 17.7469C191.709 16.8855 192.482 15.7566 194.472 15.1031C193.284 14.3307 192.66 13.1424 192.66 11.8056C192.66 8.68643 195.987 5.92371 199.879 5.92371H199.908C201.008 5.92371 201.334 6.04254 201.988 6.04254C202.671 6.04254 203.562 5.44841 204.364 4.37897C204.691 4.02249 204.988 3.72542 205.434 3.72542C205.939 3.72542 206.444 4.14132 206.414 4.79486ZM198.78 14.8951C201.067 14.8951 202.582 12.7562 202.582 10.5282C202.582 8.65672 201.513 7.08227 199.522 7.08227C197.205 7.08227 195.482 9.13203 195.482 11.5086C195.482 13.4395 196.67 14.8951 198.78 14.8951ZM196.047 20.9553C194.858 20.9553 193.492 21.6088 193.284 22.8862C193.046 24.5795 194.888 25.5004 197.71 25.5004C200.651 25.5004 202.938 24.5498 203.176 22.7079C203.325 21.787 202.968 20.6582 200.562 20.8067C199.403 20.8661 197.948 20.9553 196.047 20.9553Z" fill="#EAE0CA" fill-opacity="0.8"/>
<path d="M216.63 16.4993C217.195 15.9943 217.819 16.2913 217.403 17.034C216.601 18.5193 214.076 20.7473 210.778 20.7473C207.718 20.7473 204.926 18.7273 204.926 14.6575C204.926 10.8253 208.223 5.89401 213.63 5.89401C215.977 5.89401 217.908 7.08227 217.908 9.28056C217.908 12.9939 213.363 14.9545 207.986 15.7269C208.431 17.4499 209.887 18.7273 211.818 18.7273C213.838 18.7273 215.412 17.6281 216.63 16.4993ZM212.679 7.29022C210.095 7.29022 207.778 10.0826 207.778 13.6771C207.778 14.0633 207.956 14.4198 208.699 14.301C212.501 13.7068 215.234 12.1027 215.234 9.72616C215.234 8.30024 214.194 7.29022 212.679 7.29022Z" fill="#EAE0CA" fill-opacity="0.8"/>
<path d="M233.556 17.8658C233.734 17.8658 233.883 18.0143 233.853 18.2817C233.734 19.3808 232.546 20.6582 231.001 20.6582C229.397 20.6582 228.952 19.4699 229.071 17.7469L229.427 11.1521C229.516 9.25085 229.011 7.94376 227.377 7.94376C224.971 7.94376 222.476 11.6868 221.674 16.3804L221.109 19.6185C221.05 20.0046 220.871 20.1829 220.545 20.272L219.03 20.6582C218.614 20.777 218.346 20.5394 218.406 20.0641L219.891 9.78557C220.129 8.15171 218.881 8.44877 218.881 7.73582C218.881 7.31992 219.149 7.11198 220.545 6.48814C221.495 6.07225 221.941 6.01283 222.327 6.01283C222.743 6.01283 222.951 6.25049 222.892 6.66638L222.297 10.6471C223.842 7.76552 226.07 5.98313 228.595 5.98313C231.061 5.98313 232.309 7.70611 232.13 10.9738L231.774 17.5984C231.744 18.2222 231.744 18.6976 232.249 18.6976C232.814 18.6976 233.2 17.8658 233.556 17.8658Z" fill="#EAE0CA" fill-opacity="0.8"/>
<path d="M238.163 3.66601C237.361 3.6066 236.767 3.01247 236.826 2.18068C236.885 1.11124 238.222 -0.136434 239.411 0.0120993C240.213 0.0715118 240.777 0.814178 240.747 1.55684C240.658 2.59657 239.321 3.75513 238.163 3.66601ZM237.093 20.6582C235.46 20.6582 234.865 19.4699 235.133 17.7469L236.321 9.78557C236.559 8.21112 235.311 8.38936 235.311 7.6467C235.311 7.31992 235.519 7.02286 236.975 6.48814C238.103 6.07225 238.46 5.98313 238.846 5.98313C239.262 5.98313 239.47 6.25049 239.411 6.66638L237.836 17.5984C237.747 18.2222 237.836 18.6976 238.341 18.6976C238.905 18.6976 239.292 17.8658 239.648 17.8658C239.826 17.8658 239.975 18.0143 239.945 18.2817C239.826 19.3808 238.638 20.6582 237.093 20.6582Z" fill="#EAE0CA" fill-opacity="0.8"/>
<path d="M255.846 17.8658C256.024 17.8658 256.172 18.0143 256.143 18.2817C256.024 19.3808 254.836 20.6582 253.291 20.6582C251.895 20.6582 250.885 19.7967 251.449 16.6478C249.934 19.0837 248.003 20.7473 245.627 20.7473C242.715 20.7473 241.349 18.7867 241.824 15.1625L242.567 9.63704C242.804 8.03288 241.557 8.44877 241.557 7.73582C241.557 7.31992 241.794 7.08227 243.22 6.48814C244.171 6.10195 244.825 5.95342 245.211 5.95342C245.627 5.95342 245.864 6.25049 245.775 6.66638L244.646 14.5386C244.409 16.2616 244.082 18.9946 246.429 18.9946C248.894 18.9946 251.598 15.1031 252.37 10.4094L252.905 7.11198C252.964 6.66638 253.261 6.54755 253.588 6.45843L255.014 6.04254C255.519 5.89401 255.757 6.3099 255.697 6.66638L254.063 17.5687C253.944 18.2222 254.034 18.6976 254.539 18.6976C255.103 18.6976 255.459 17.8658 255.846 17.8658Z" fill="#EAE0CA" fill-opacity="0.8"/>
<path d="M262.001 20.7473C260.426 20.7473 257.426 20.5691 257.069 19.3511C256.832 18.5193 256.624 17.7766 256.445 16.5884C256.386 16.1725 256.535 15.8754 256.891 15.7863C257.188 15.6972 257.485 15.8754 257.782 16.3507C259.416 18.9055 261.109 19.4105 262.654 19.4105C264.169 19.4105 265.149 18.549 265.268 17.6578C265.536 16.2022 264.139 15.3407 261.911 14.3604C259.505 13.3504 257.455 12.0136 257.901 9.57763C258.347 6.90403 261.317 5.89401 263.724 5.89401C265.357 5.89401 267.377 6.22078 267.823 7.34963C268.061 7.91406 268.209 8.30024 268.328 8.80525C268.506 9.57763 268.417 9.81528 268.031 9.96381C267.615 10.1123 267.288 9.69645 266.338 8.77555C265.387 7.82494 264.288 7.2011 262.951 7.2011C261.585 7.2011 260.515 8.00318 260.367 8.92408C260.099 10.35 261.228 11.0035 263.753 12.1027C266.427 13.2315 268.328 14.598 267.942 16.7963C267.526 19.0243 265.298 20.7473 262.001 20.7473Z" fill="#EAE0CA" fill-opacity="0.8"/>
</svg>
