<svg width="65" height="65" viewBox="0 0 65 65" fill="none" xmlns="http://www.w3.org/2000/svg">
<rect width="64.8691" height="64.8691" rx="32.4346" fill="#B9CABE"/>
<rect x="0.565718" y="0.565718" width="63.7377" height="63.7377" rx="31.8689" stroke="black" stroke-opacity="0.2" stroke-width="1.13144"/>
<path d="M44.6395 31.0008L33.4633 42.177C32.0941 43.5461 30.2371 44.3153 28.3008 44.3153C26.3645 44.3153 24.5075 43.5461 23.1384 42.177C21.7692 40.8078 21 38.9508 21 37.0145C21 35.0782 21.7692 33.2212 23.1384 31.8521L33.5606 21.4299C34.4733 20.5155 35.712 20.0011 37.004 20C38.296 19.9989 39.5355 20.511 40.4499 21.4238C41.3643 22.3366 41.8786 23.5752 41.8798 24.8672C41.8809 26.1592 41.3688 27.3988 40.456 28.3131L30.0095 38.7353C29.5531 39.1917 28.9341 39.4481 28.2886 39.4481C27.6432 39.4481 27.0242 39.1917 26.5678 38.7353C26.1114 38.279 25.855 37.66 25.855 37.0145C25.855 36.3691 26.1114 35.7501 26.5678 35.2937L36.8927 24.981" stroke="white" stroke-opacity="0.8" stroke-width="1.50858" stroke-linecap="round" stroke-linejoin="round"/>
</svg>
