<svg width="65" height="65" viewBox="0 0 65 65" fill="none" xmlns="http://www.w3.org/2000/svg">
<rect width="64.6753" height="64.6753" rx="32.3376" fill="#9ABAC7"/>
<rect x="0.564027" y="0.564027" width="63.5472" height="63.5472" rx="31.7736" stroke="black" stroke-opacity="0.2" stroke-width="1.12805"/>
<g clip-path="url(#clip0_120_181)">
<path d="M18.4203 28.8362C19.4877 24.8523 23.4566 22.5609 27.4405 23.6284C31.4243 24.6958 33.7158 28.6647 32.6483 32.6486M18.4203 28.8362C16.3148 36.6941 20.978 44.7711 28.8359 46.8766C36.6938 48.9821 44.7708 44.3189 46.8763 36.4609M18.4203 28.8362C20.5258 20.9783 28.6028 16.315 36.4607 18.4205C44.3186 20.5261 48.9818 28.603 46.8763 36.4609M32.6483 32.6486C31.5808 36.6324 33.8723 40.6013 37.8561 41.6688C41.84 42.7362 45.8089 40.4448 46.8763 36.4609M32.6483 32.6486C31.2596 31.2654 29.3782 30.4903 27.4182 30.4942C25.4581 30.498 23.5799 31.2804 22.1967 32.6691C20.8135 34.0578 20.0386 35.9391 20.0425 37.8991C20.0464 39.8591 20.8287 41.7374 22.2174 43.1206M32.6483 32.6486C33.3266 33.331 34.1325 33.8729 35.0203 34.2438C35.9081 34.6147 36.8602 34.8071 37.8223 34.81C38.7845 34.8129 39.7378 34.6263 40.6278 34.2608C41.5178 33.8953 42.3271 33.358 43.0095 32.6798C43.6919 32.0015 44.234 31.1955 44.6049 30.3077C44.9758 29.4199 45.1681 28.4678 45.1711 27.5056C45.174 26.5435 44.9874 25.5902 44.6219 24.7002C44.2564 23.8102 43.7191 23.0009 43.0409 22.3185M28.8511 18.3639C30.7265 17.8553 32.7271 18.1125 34.4128 19.079C36.0986 20.0454 37.3313 21.642 37.8399 23.5173C38.3485 25.3927 38.0913 27.3933 37.1248 29.0791C36.1584 30.7648 34.5618 31.9976 32.6865 32.5062C30.8111 33.0148 29.2145 34.2475 28.2481 35.9333C27.2816 37.619 27.0244 39.6196 27.533 41.495C28.0416 43.3704 29.2744 44.9669 30.9601 45.9334C32.6458 46.8998 34.6464 47.1571 36.5218 46.6485" stroke="white" stroke-opacity="0.8" stroke-width="1.50433" stroke-linecap="round" stroke-linejoin="round"/>
</g>
<defs>
<clipPath id="clip0_120_181">
<rect width="35.3518" height="35.3518" fill="white" transform="translate(20.1497 11) rotate(15)"/>
</clipPath>
</defs>
</svg>
