<svg width="280" height="27" viewBox="0 0 280 27" fill="none" xmlns="http://www.w3.org/2000/svg">
<path d="M0.354306 18.5L2.53263 9.05183H6.24629C6.76244 9.05183 7.21298 9.15244 7.5979 9.35365C7.98283 9.55486 8.28027 9.83918 8.49023 10.2066C8.70894 10.574 8.81829 11.0027 8.81829 11.4926C8.81829 11.9388 8.73081 12.3543 8.55584 12.7392C8.38962 13.1154 8.15342 13.4435 7.84723 13.7234C7.54104 14.0034 7.17798 14.2221 6.75806 14.3795C6.34689 14.5283 5.89198 14.6026 5.39333 14.6026H2.03398L2.24394 13.6578H5.44582C5.787 13.6578 6.09757 13.6097 6.37751 13.5135C6.65746 13.4085 6.89804 13.2641 7.09925 13.0804C7.30921 12.888 7.46668 12.6649 7.57166 12.4112C7.68538 12.1575 7.74225 11.8775 7.74225 11.5713C7.74225 11.1077 7.60228 10.7315 7.32233 10.4428C7.05113 10.1454 6.60497 9.99665 5.98384 9.99665H3.38559L1.43035 18.5H0.354306ZM12.2298 18.6312C11.6699 18.6312 11.1756 18.5087 10.747 18.2638C10.3183 18.0101 9.98151 17.6602 9.73655 17.214C9.50035 16.7678 9.38225 16.2517 9.38225 15.6655C9.38225 15.1144 9.47848 14.5983 9.67094 14.1171C9.87215 13.6359 10.1434 13.2117 10.4845 12.8442C10.8345 12.4768 11.2369 12.1925 11.6918 11.9913C12.1467 11.7813 12.6366 11.6763 13.1615 11.6763C13.7389 11.6763 14.2419 11.7988 14.6706 12.0438C15.0993 12.2887 15.4317 12.6343 15.6679 13.0804C15.9041 13.5178 16.0222 14.0296 16.0222 14.6158C16.0222 15.1669 15.9216 15.6874 15.7204 16.1773C15.5192 16.6585 15.2436 17.0828 14.8937 17.4502C14.5437 17.8176 14.1413 18.1063 13.6864 18.3163C13.2315 18.5262 12.746 18.6312 12.2298 18.6312ZM12.2823 17.7389C12.641 17.7389 12.9822 17.6602 13.3059 17.5027C13.6295 17.3365 13.9139 17.1134 14.1588 16.8334C14.4038 16.5448 14.5962 16.2123 14.7362 15.8361C14.8762 15.46 14.9462 15.0575 14.9462 14.6289C14.9462 13.999 14.78 13.5003 14.4475 13.1329C14.1238 12.7567 13.6777 12.5687 13.109 12.5687C12.7416 12.5687 12.396 12.6474 12.0724 12.8049C11.7574 12.9623 11.4775 13.181 11.2325 13.461C10.9963 13.7409 10.8082 14.069 10.6682 14.4452C10.5283 14.8126 10.4583 15.2106 10.4583 15.6393C10.4583 16.2779 10.6245 16.7897 10.9569 17.1746C11.2894 17.5508 11.7312 17.7389 12.2823 17.7389ZM18.7021 18.5L18.2034 11.8075H19.227L19.4763 17.5421H19.2138L22.4288 11.8075H23.2818L23.8592 17.5421H23.5574L26.4443 11.8075H27.5335L23.9379 18.5H23.085L22.4945 12.8967H22.8094L19.5944 18.5H18.7021ZM31.0088 18.6312C30.4401 18.6312 29.9415 18.5087 29.5128 18.2638C29.0841 18.0188 28.7517 17.6777 28.5155 17.2402C28.2793 16.7941 28.1612 16.2779 28.1612 15.6918C28.1612 15.2456 28.2224 14.8213 28.3449 14.4189C28.4761 14.0165 28.6555 13.6491 28.8829 13.3166C29.1104 12.9842 29.3816 12.6955 29.6965 12.4505C30.0115 12.2056 30.357 12.0175 30.7332 11.8863C31.1094 11.7463 31.5074 11.6763 31.9273 11.6763C32.4697 11.6763 32.9421 11.7857 33.3446 12.0044C33.7557 12.2231 34.0707 12.5293 34.2894 12.923C34.5168 13.3166 34.6306 13.7759 34.6306 14.3008C34.6306 14.502 34.6087 14.7032 34.565 14.9044C34.53 15.0969 34.4687 15.285 34.3812 15.4687H28.9617L29.1585 14.5895H33.922L33.4758 15.2981C33.5545 14.9744 33.5895 14.6551 33.5808 14.3402C33.5808 14.0165 33.5195 13.7234 33.3971 13.461C33.2833 13.1898 33.104 12.9754 32.859 12.818C32.6141 12.6518 32.286 12.5687 31.8749 12.5687C31.5862 12.5687 31.3106 12.6211 31.0481 12.7261C30.7857 12.8311 30.5451 12.9798 30.3264 13.1723C30.1077 13.356 29.9152 13.5791 29.749 13.8415C29.5828 14.0952 29.4559 14.3795 29.3685 14.6945C29.281 15.0007 29.2372 15.3244 29.2372 15.6655C29.2372 16.3129 29.4078 16.8203 29.749 17.1878C30.0902 17.5552 30.5582 17.7389 31.1531 17.7389C31.5555 17.7389 31.9055 17.6514 32.2029 17.4764C32.5004 17.2927 32.7541 17.0172 32.964 16.6497H33.9613C33.6376 17.3146 33.2265 17.8133 32.7278 18.1457C32.2292 18.4694 31.6561 18.6312 31.0088 18.6312ZM35.9753 18.5L37.5238 11.8075H38.5079L38.1143 13.5135H38.1799L37.0251 18.5H35.9753ZM37.8781 14.7863L38.0618 13.1854C38.2892 12.7392 38.6129 12.3762 39.0328 12.0962C39.4615 11.8163 39.9339 11.6763 40.4501 11.6763C40.5988 11.6763 40.7256 11.6894 40.8306 11.7157C40.9356 11.7332 41.0187 11.7551 41.0799 11.7813L40.8437 12.7917C40.7738 12.7655 40.6644 12.7436 40.5157 12.7261C40.3757 12.6999 40.2401 12.6868 40.1089 12.6868C39.5402 12.6868 39.0635 12.8661 38.6785 13.2248C38.2936 13.5835 38.0268 14.104 37.8781 14.7863ZM44.4055 18.6312C43.8368 18.6312 43.3382 18.5087 42.9095 18.2638C42.4808 18.0188 42.1484 17.6777 41.9122 17.2402C41.676 16.7941 41.5579 16.2779 41.5579 15.6918C41.5579 15.2456 41.6191 14.8213 41.7416 14.4189C41.8728 14.0165 42.0522 13.6491 42.2796 13.3166C42.5071 12.9842 42.7783 12.6955 43.0932 12.4505C43.4082 12.2056 43.7537 12.0175 44.1299 11.8863C44.5061 11.7463 44.9041 11.6763 45.324 11.6763C45.8664 11.6763 46.3388 11.7857 46.7413 12.0044C47.1524 12.2231 47.4674 12.5293 47.6861 12.923C47.9135 13.3166 48.0273 13.7759 48.0273 14.3008C48.0273 14.502 48.0054 14.7032 47.9616 14.9044C47.9267 15.0969 47.8654 15.285 47.7779 15.4687H42.3584L42.5552 14.5895H47.3186L46.8725 15.2981C46.9512 14.9744 46.9862 14.6551 46.9775 14.3402C46.9775 14.0165 46.9162 13.7234 46.7938 13.461C46.68 13.1898 46.5007 12.9754 46.2557 12.818C46.0108 12.6518 45.6827 12.5687 45.2715 12.5687C44.9829 12.5687 44.7073 12.6211 44.4448 12.7261C44.1824 12.8311 43.9418 12.9798 43.7231 13.1723C43.5044 13.356 43.3119 13.5791 43.1457 13.8415C42.9795 14.0952 42.8526 14.3795 42.7652 14.6945C42.6777 15.0007 42.6339 15.3244 42.6339 15.6655C42.6339 16.3129 42.8045 16.8203 43.1457 17.1878C43.4869 17.5552 43.9549 17.7389 44.5498 17.7389C44.9522 17.7389 45.3022 17.6514 45.5996 17.4764C45.8971 17.2927 46.1508 17.0172 46.3607 16.6497H47.358C47.0343 17.3146 46.6232 17.8133 46.1245 18.1457C45.6259 18.4694 45.0528 18.6312 44.4055 18.6312ZM54.2404 18.5L54.5554 17.1615L54.621 17.214C54.3673 17.6689 54.0217 18.0188 53.5843 18.2638C53.1469 18.5087 52.657 18.6312 52.1146 18.6312C51.336 18.6312 50.7236 18.3819 50.2775 17.8832C49.8313 17.3846 49.6082 16.711 49.6082 15.8624C49.6082 15.285 49.7001 14.747 49.8838 14.2483C50.0762 13.7409 50.3387 13.2991 50.6711 12.923C51.0123 12.538 51.4016 12.2362 51.839 12.0175C52.2764 11.7988 52.7445 11.6894 53.2431 11.6894C53.6893 11.6894 54.0786 11.7769 54.411 11.9519C54.7435 12.1181 55.0015 12.3543 55.1853 12.6605C55.3777 12.9579 55.4739 13.3079 55.4739 13.7103L55.264 13.7234L56.3531 9.05183H57.4029L55.2246 18.5H54.2404ZM52.4033 17.7127C52.692 17.7127 52.9676 17.6602 53.23 17.5552C53.5012 17.4502 53.7462 17.3059 53.9649 17.1221C54.1836 16.9297 54.376 16.7066 54.5423 16.4529C54.7085 16.1904 54.8353 15.9061 54.9228 15.5999C55.0103 15.2937 55.054 14.9744 55.054 14.642C55.054 14.0121 54.8922 13.5178 54.5685 13.1592C54.2536 12.7917 53.8249 12.608 53.2825 12.608C52.7926 12.608 52.3508 12.748 51.9571 13.0279C51.5635 13.3079 51.2529 13.6841 51.0254 14.1565C50.798 14.6201 50.6842 15.1363 50.6842 15.7049C50.6842 16.3173 50.8373 16.8072 51.1435 17.1746C51.4497 17.5333 51.8696 17.7127 52.4033 17.7127ZM64.7993 18.6181C64.3531 18.6181 63.9638 18.535 63.6314 18.3688C63.299 18.1938 63.0409 17.9532 62.8572 17.647C62.6735 17.3408 62.5772 16.9909 62.5685 16.5972L62.7128 16.5841L62.2535 18.5H61.2694L63.4477 9.05183H64.4975L63.5527 13.146L63.4214 13.0935C63.6751 12.6386 64.0207 12.2887 64.4581 12.0438C64.9043 11.7988 65.3942 11.6763 65.9278 11.6763C66.7064 11.6763 67.3188 11.9256 67.765 12.4243C68.2111 12.9142 68.4342 13.5878 68.4342 14.4452C68.4342 15.0225 68.338 15.5649 68.1455 16.0723C67.9618 16.571 67.6994 17.0128 67.3582 17.3977C67.0257 17.7739 66.6408 18.0713 66.2034 18.29C65.766 18.5087 65.298 18.6181 64.7993 18.6181ZM64.7599 17.6995C65.1274 17.6995 65.4685 17.6208 65.7835 17.4633C66.0984 17.2971 66.374 17.074 66.6102 16.7941C66.8464 16.5054 67.0301 16.173 67.1613 15.7968C67.2926 15.4206 67.3582 15.0225 67.3582 14.6026C67.3582 13.9815 67.2051 13.4916 66.8989 13.1329C66.6014 12.7742 66.1815 12.5949 65.6391 12.5949C65.3504 12.5949 65.0705 12.6474 64.7993 12.7524C64.5368 12.8573 64.2963 13.0061 64.0776 13.1985C63.8589 13.3822 63.6664 13.6053 63.5002 13.8678C63.334 14.1215 63.2071 14.4014 63.1196 14.7076C63.0321 15.0138 62.9884 15.3331 62.9884 15.6655C62.9884 16.2954 63.1502 16.7941 63.4739 17.1615C63.7976 17.5202 64.2263 17.6995 64.7599 17.6995ZM69.5601 21.1901L71.8565 17.7127L72.1714 17.3452L75.6489 11.8075H76.8168L70.7673 21.1901H69.5601ZM71.8696 18.5656L70.4262 11.8075H71.5022L72.6832 17.857L71.8696 18.5656Z" fill="white" fill-opacity="0.8"/>
<path d="M102.093 5.84424H98.3672V15.3818C98.3672 18.4712 100.872 20.975 103.96 20.975H110.336V17.9039H102.093V5.84424Z" fill="white"/>
<path d="M116.228 7.19201L111.105 20.975H114.584L115.803 17.7231H123.075L124.295 20.975H127.976L122.307 5.84424H118.166C117.302 5.84424 116.529 6.38159 116.228 7.19201ZM116.909 14.742L118.795 9.65255C118.924 9.30481 119.256 9.07347 119.627 9.07347H119.845L121.968 14.742H116.909Z" fill="white"/>
<path d="M140.749 16.029H140.252L133.929 5.84424H129.006V20.6353C129.006 20.8227 129.158 20.975 129.346 20.975H132.416V10.7902H132.936L139.259 20.975H144.182V6.48335C144.182 6.13048 143.896 5.84424 143.543 5.84424H140.749V16.029Z" fill="white"/>
<path d="M145.966 8.91533H151.612V19.9962C151.612 20.5365 152.051 20.975 152.591 20.975H155.338V8.91533H159.73L160.984 5.84424H145.966V8.91533Z" fill="white"/>
<path d="M170.701 5.64038H169.944C164.411 5.64038 160.008 8.30518 160.008 13.0476V13.7702C160.008 18.558 164.411 21.1774 169.944 21.1774H170.701C176.12 21.1774 180.434 18.558 180.434 13.7702V13.0476C180.434 8.30518 176.12 5.64038 170.701 5.64038ZM176.369 13.7702C176.369 16.3676 174.088 17.7674 170.52 17.7674H169.944C166.376 17.7674 164.095 16.3669 164.095 13.7702V13.0476C164.095 10.4729 166.376 9.05043 169.944 9.05043H170.52C174.088 9.05043 176.369 10.4729 176.369 13.0476V13.7702Z" fill="white"/>
<path d="M193.977 6.23957V16.029H193.48L187.156 5.84424H182.233V20.6983C182.233 20.8513 182.357 20.975 182.51 20.975H185.643V10.7902H186.163L192.486 20.975H197.409V5.84424H194.372C194.153 5.84424 193.976 6.0214 193.976 6.24029L193.977 6.23957Z" fill="white"/>
<path d="M91.3673 5.84302H83.0566V20.8559C83.0566 20.921 83.1094 20.9738 83.1745 20.9738H86.783V16.0051H91.3673C95.4099 16.0051 97.0358 14.2664 97.0358 11.308V10.5174C97.0358 7.58172 95.4099 5.84302 91.3673 5.84302ZM93.2641 11.218C93.2641 12.483 92.5188 12.9347 91.051 12.9347H86.783V8.91484H91.051C92.5188 8.91484 93.2641 9.38924 93.2641 10.6089V11.2187V11.218Z" fill="white"/>
<path d="M216.718 4.84003C216.658 5.97951 215.429 6.8791 214.109 7.20896C215.129 8.04858 215.638 9.18806 215.638 10.3875C215.638 13.836 212.43 16.2649 208.592 16.2649C207.422 16.2649 206.403 16.0849 205.563 15.7251C205.113 15.965 204.513 16.4448 204.424 17.0445C204.244 18.5138 206.073 18.8437 207.812 18.8437C209.461 18.8437 211.23 18.6638 212.28 18.6638C215.219 18.6638 216.538 20.1031 216.238 21.9623C215.848 24.9009 212.55 27 207.062 27C203.614 27 200.495 25.8905 200.885 23.2217C201.005 22.2921 201.785 21.1227 203.254 20.5229C202.354 20.0431 201.575 19.2035 201.755 17.9141C201.875 17.0445 202.654 15.905 204.663 15.2453C203.464 14.4657 202.834 13.2662 202.834 11.9168C202.834 8.76825 206.193 5.97951 210.121 5.97951H210.151C211.26 5.97951 211.59 6.09946 212.25 6.09946C212.94 6.09946 213.839 5.49973 214.649 4.42022C214.979 4.06038 215.279 3.76052 215.728 3.76052C216.238 3.76052 216.748 4.18033 216.718 4.84003ZM209.011 15.0354C211.32 15.0354 212.85 12.8764 212.85 10.6274C212.85 8.73826 211.77 7.14898 209.761 7.14898C207.422 7.14898 205.683 9.21805 205.683 11.617C205.683 13.5661 206.882 15.0354 209.011 15.0354ZM206.253 21.1526C205.053 21.1526 203.674 21.8123 203.464 23.1018C203.224 24.811 205.083 25.7406 207.932 25.7406C210.901 25.7406 213.21 24.781 213.449 22.9218C213.599 21.9923 213.24 20.8528 210.811 21.0027C209.641 21.0627 208.172 21.1526 206.253 21.1526Z" fill="url(#paint0_linear_157_192)"/>
<path d="M227.03 16.6547C227.6 16.1449 228.23 16.4448 227.81 17.1944C227 18.6938 224.452 20.9427 221.123 20.9427C218.035 20.9427 215.216 18.9037 215.216 14.7955C215.216 10.9273 218.544 5.94953 224.002 5.94953C226.371 5.94953 228.32 7.14898 228.32 9.36798C228.32 13.1163 223.732 15.0954 218.304 15.875C218.754 17.6142 220.224 18.9037 222.173 18.9037C224.212 18.9037 225.801 17.7942 227.03 16.6547ZM223.042 7.35889C220.433 7.35889 218.095 10.1776 218.095 13.806C218.095 14.1958 218.274 14.5556 219.024 14.4357C222.862 13.836 225.621 12.2167 225.621 9.81777C225.621 8.37843 224.572 7.35889 223.042 7.35889Z" fill="url(#paint1_linear_157_192)"/>
<path d="M244.116 18.0341C244.296 18.0341 244.446 18.184 244.416 18.4539C244.296 19.5634 243.096 20.8528 241.537 20.8528C239.918 20.8528 239.468 19.6533 239.588 17.9141L239.948 11.2571C240.038 9.33799 239.528 8.01859 237.879 8.01859C235.45 8.01859 232.931 11.7969 232.121 16.5347L231.551 19.8033C231.491 20.1931 231.311 20.373 230.982 20.463L229.452 20.8528C229.033 20.9727 228.763 20.7328 228.823 20.2531L230.322 9.87775C230.562 8.22849 229.302 8.52836 229.302 7.80868C229.302 7.38887 229.572 7.17897 230.982 6.54925C231.941 6.12944 232.391 6.06947 232.781 6.06947C233.201 6.06947 233.411 6.30936 233.351 6.72917L232.751 10.7474C234.31 7.83867 236.559 6.03949 239.108 6.03949C241.597 6.03949 242.856 7.7787 242.676 11.0772L242.317 17.7642C242.287 18.3939 242.287 18.8737 242.796 18.8737C243.366 18.8737 243.756 18.0341 244.116 18.0341Z" fill="url(#paint2_linear_157_192)"/>
<path d="M248.766 3.70054C247.956 3.64057 247.356 3.04084 247.416 2.20122C247.476 1.12171 248.826 -0.137719 250.025 0.0122133C250.835 0.0721854 251.405 0.821847 251.375 1.57151C251.285 2.62103 249.935 3.7905 248.766 3.70054ZM247.686 20.8528C246.037 20.8528 245.437 19.6533 245.707 17.9141L246.907 9.87775C247.146 8.28847 245.887 8.46839 245.887 7.71873C245.887 7.38887 246.097 7.08901 247.566 6.54925C248.706 6.12944 249.066 6.03949 249.455 6.03949C249.875 6.03949 250.085 6.30936 250.025 6.72917L248.436 17.7642C248.346 18.3939 248.436 18.8737 248.946 18.8737C249.515 18.8737 249.905 18.0341 250.265 18.0341C250.445 18.0341 250.595 18.184 250.565 18.4539C250.445 19.5634 249.245 20.8528 247.686 20.8528Z" fill="url(#paint3_linear_157_192)"/>
<path d="M266.615 18.0341C266.795 18.0341 266.945 18.184 266.915 18.4539C266.795 19.5634 265.596 20.8528 264.036 20.8528C262.627 20.8528 261.607 19.9832 262.177 16.8046C260.648 19.2635 258.699 20.9427 256.3 20.9427C253.361 20.9427 251.982 18.9636 252.462 15.3053L253.211 9.72782C253.451 8.10855 252.192 8.52836 252.192 7.80868C252.192 7.38887 252.432 7.14898 253.871 6.54925C254.83 6.15943 255.49 6.0095 255.88 6.0095C256.3 6.0095 256.54 6.30936 256.45 6.72917L255.31 14.6756C255.07 16.4148 254.741 19.1735 257.109 19.1735C259.598 19.1735 262.327 15.2453 263.107 10.5075L263.646 7.17897C263.706 6.72917 264.006 6.60923 264.336 6.51927L265.776 6.09946C266.285 5.94953 266.525 6.36934 266.465 6.72917L264.816 17.7342C264.696 18.3939 264.786 18.8737 265.296 18.8737C265.865 18.8737 266.225 18.0341 266.615 18.0341Z" fill="url(#paint4_linear_157_192)"/>
<path d="M272.828 20.9427C271.239 20.9427 268.21 20.7628 267.85 19.5334C267.61 18.6938 267.4 17.9441 267.22 16.7446C267.161 16.3248 267.31 16.025 267.67 15.935C267.97 15.845 268.27 16.025 268.57 16.5047C270.219 19.0836 271.928 19.5934 273.488 19.5934C275.017 19.5934 276.007 18.7237 276.126 17.8242C276.396 16.3548 274.987 15.4852 272.738 14.4957C270.309 13.4761 268.24 12.1267 268.69 9.66784C269.14 6.96906 272.138 5.94953 274.567 5.94953C276.216 5.94953 278.255 6.27938 278.705 7.41886C278.945 7.9886 279.095 8.37843 279.215 8.8882C279.395 9.66784 279.305 9.90773 278.915 10.0577C278.495 10.2076 278.166 9.78779 277.206 8.85821C276.246 7.89864 275.137 7.26893 273.788 7.26893C272.408 7.26893 271.329 8.07856 271.179 9.00814C270.909 10.4475 272.048 11.1072 274.597 12.2167C277.296 13.3562 279.215 14.7355 278.825 16.9545C278.405 19.2035 276.156 20.9427 272.828 20.9427Z" fill="url(#paint5_linear_157_192)"/>
<defs>
<linearGradient id="paint0_linear_157_192" x1="219.012" y1="3.96219" x2="272.741" y2="23.244" gradientUnits="userSpaceOnUse">
<stop stop-color="#44A767"/>
<stop offset="1" stop-color="#00A4A3"/>
</linearGradient>
<linearGradient id="paint1_linear_157_192" x1="219.012" y1="3.96219" x2="272.741" y2="23.244" gradientUnits="userSpaceOnUse">
<stop stop-color="#44A767"/>
<stop offset="1" stop-color="#00A4A3"/>
</linearGradient>
<linearGradient id="paint2_linear_157_192" x1="219.012" y1="3.96219" x2="272.741" y2="23.244" gradientUnits="userSpaceOnUse">
<stop stop-color="#44A767"/>
<stop offset="1" stop-color="#00A4A3"/>
</linearGradient>
<linearGradient id="paint3_linear_157_192" x1="219.012" y1="3.96219" x2="272.741" y2="23.244" gradientUnits="userSpaceOnUse">
<stop stop-color="#44A767"/>
<stop offset="1" stop-color="#00A4A3"/>
</linearGradient>
<linearGradient id="paint4_linear_157_192" x1="219.012" y1="3.96219" x2="272.741" y2="23.244" gradientUnits="userSpaceOnUse">
<stop stop-color="#44A767"/>
<stop offset="1" stop-color="#00A4A3"/>
</linearGradient>
<linearGradient id="paint5_linear_157_192" x1="219.012" y1="3.96219" x2="272.741" y2="23.244" gradientUnits="userSpaceOnUse">
<stop stop-color="#44A767"/>
<stop offset="1" stop-color="#00A4A3"/>
</linearGradient>
</defs>
</svg>
